<svg width="67" height="102" viewBox="0 0 67 102" fill="none" xmlns="http://www.w3.org/2000/svg">
<mask id="path-1-outside-1_240_1668" maskUnits="userSpaceOnUse" x="-1" y="-1" width="69" height="104" fill="black">
<rect fill="white" x="-1" y="-1" width="69" height="104"/>
<path d="M0.15 94.5C5.45 89.4 9.5 85.55 12.3 82.95C22.2 73.45 29.45 66.2 34.05 61.2C38.65 56.2 42.25 51.05 44.85 45.75C47.55 40.45 48.9 34.7 48.9 28.5C48.9 21.3 47 15.75 43.2 11.85C39.5 7.94999 34.9 5.99999 29.4 5.99999C23.3 5.99999 18 8.19999 13.5 12.6C9.1 17 6.15 23.3 4.65 31.5H1.65C1.65 26.5 1.85 22.55 2.25 19.65C2.65 16.65 3.65 14.1 5.25 12C8.05 8.6 12.05 5.75 17.25 3.45C22.55 1.15 28.1 -1.07288e-06 33.9 -1.07288e-06C41.8 -1.07288e-06 48.75 2.1 54.75 6.3C60.85 10.4 63.9 17.8 63.9 28.5C63.9 34.8 62.4 40.7 59.4 46.2C56.5 51.7 52.7 56.85 48 61.65C43.4 66.35 36.85 72.45 28.35 79.95C19.55 87.85 13.65 93.2 10.65 96H44.4C50.5 96 55.15 94.7 58.35 92.1C61.55 89.5 63.15 85.55 63.15 80.25H66.15V90C66.15 98 61.9 102 53.4 102H0.15V94.5Z"/>
</mask>
<path d="M0.15 94.5L-0.54338 93.7794L-0.85 94.0745V94.5H0.15ZM12.3 82.95L12.9805 83.6828L12.9865 83.6772L12.9924 83.6715L12.3 82.95ZM34.05 61.2L34.7859 61.8771L34.05 61.2ZM44.85 45.75L43.959 45.2961L43.9555 45.3028L43.9522 45.3096L44.85 45.75ZM43.2 11.85L42.4745 12.5383L42.4838 12.5479L43.2 11.85ZM13.5 12.6L12.8008 11.8849L12.7929 11.8929L13.5 12.6ZM4.65 31.5V32.5H5.48367L5.63368 31.6799L4.65 31.5ZM1.65 31.5H0.650001V32.5H1.65V31.5ZM2.25 19.65L3.24063 19.7866L3.24123 19.7822L2.25 19.65ZM5.25 12L4.47807 11.3643L4.46604 11.3789L4.45457 11.394L5.25 12ZM17.25 3.45L16.8519 2.53263L16.8455 2.53547L17.25 3.45ZM54.75 6.3L54.1765 7.11923L54.1843 7.12466L54.1922 7.12995L54.75 6.3ZM59.4 46.2L58.522 45.7211L58.5154 45.7336L59.4 46.2ZM48 61.65L47.2855 60.9504L47.2853 60.9505L48 61.65ZM28.35 79.95L27.6884 79.2001L27.682 79.2059L28.35 79.95ZM10.65 96L9.96768 95.2689L8.11298 97H10.65V96ZM58.35 92.1L58.9806 92.8761L58.35 92.1ZM63.15 80.25V79.25H62.15V80.25H63.15ZM66.15 80.25H67.15V79.25H66.15V80.25ZM0.15 102H-0.85V103H0.15V102ZM0.84338 95.2206C6.14224 90.1217 10.1871 86.2766 12.9805 83.6828L11.6196 82.2172C8.81289 84.8234 4.75776 88.6783 -0.54338 93.7794L0.84338 95.2206ZM12.9924 83.6715C22.8955 74.1685 30.164 66.9009 34.7859 61.8771L33.3141 60.5229C28.736 65.4991 21.5045 72.7315 11.6076 82.2285L12.9924 83.6715ZM34.7859 61.8771C39.4414 56.8168 43.0997 51.5885 45.7478 46.1904L43.9522 45.3096C41.4003 50.5115 37.8586 55.5832 33.3141 60.5229L34.7859 61.8771ZM45.741 46.2039C48.5157 40.7573 49.9 34.8509 49.9 28.5H47.9C47.9 34.5491 46.5843 40.1427 43.959 45.2961L45.741 46.2039ZM49.9 28.5C49.9 21.126 47.9508 15.2929 43.9162 11.1521L42.4838 12.5479C46.0492 16.2071 47.9 21.474 47.9 28.5H49.9ZM43.9255 11.1617C40.0318 7.05757 35.1672 4.99999 29.4 4.99999V6.99999C34.6328 6.99999 38.9682 8.84241 42.4745 12.5383L43.9255 11.1617ZM29.4 4.99999C23.0296 4.99999 17.4811 7.30875 12.8009 11.885L14.1991 13.315C18.5189 9.09124 23.5704 6.99999 29.4 6.99999V4.99999ZM12.7929 11.8929C8.20791 16.4779 5.19067 22.987 3.66632 31.3201L5.63368 31.6799C7.10933 23.613 9.99209 17.5221 14.2071 13.3071L12.7929 11.8929ZM4.65 30.5H1.65V32.5H4.65V30.5ZM2.65 31.5C2.65 26.5186 2.84972 22.6207 3.24062 19.7866L1.25938 19.5134C0.850286 22.4793 0.650001 26.4814 0.650001 31.5H2.65ZM3.24123 19.7822C3.62167 16.9289 4.56538 14.5486 6.04543 12.606L4.45457 11.394C2.73462 13.6514 1.67834 16.3711 1.25877 19.5178L3.24123 19.7822ZM6.02193 12.6357C8.69831 9.38581 12.5569 6.61923 17.6545 4.36454L16.8455 2.53547C11.5431 4.88077 7.40169 7.81419 4.47807 11.3643L6.02193 12.6357ZM17.6481 4.36734C22.822 2.12209 28.2364 0.999998 33.9 0.999998V-1C27.9636 -1 22.278 0.177914 16.8519 2.53265L17.6481 4.36734ZM33.9 0.999998C41.6118 0.999998 48.358 3.04627 54.1765 7.11923L55.3235 5.48077C49.142 1.15373 41.9882 -1 33.9 -1V0.999998ZM54.1922 7.12995C59.9038 10.9689 62.9 17.9706 62.9 28.5H64.9C64.9 17.6294 61.7962 9.83107 55.3078 5.47005L54.1922 7.12995ZM62.9 28.5C62.9 34.6337 61.4415 40.3689 58.5221 45.7211L60.2779 46.6788C63.3585 41.0311 64.9 34.9663 64.9 28.5H62.9ZM58.5154 45.7336C55.664 51.1414 51.9232 56.2139 47.2855 60.9504L48.7145 62.3496C53.4768 57.4861 57.336 52.2586 60.2846 46.6664L58.5154 45.7336ZM47.2853 60.9505C42.7103 65.6251 36.1811 71.7066 27.6884 79.2002L29.0116 80.6998C37.5189 73.1934 44.0897 67.0749 48.7147 62.3495L47.2853 60.9505ZM27.682 79.2059C18.883 87.105 12.9759 92.4613 9.96768 95.2689L11.3323 96.7311C14.3241 93.9387 20.217 88.595 29.018 80.6941L27.682 79.2059ZM10.65 97H44.4V95H10.65V97ZM44.4 97C50.6234 97 55.5344 95.6762 58.9806 92.8761L57.7194 91.3239C54.7656 93.7238 50.3766 95 44.4 95V97ZM58.9806 92.8761C62.4781 90.0344 64.15 85.758 64.15 80.25H62.15C62.15 85.342 60.6219 88.9656 57.7194 91.3239L58.9806 92.8761ZM63.15 81.25H66.15V79.25H63.15V81.25ZM65.15 80.25V90H67.15V80.25H65.15ZM65.15 90C65.15 93.8298 64.1356 96.5226 62.2771 98.2718C60.4073 100.032 57.5105 101 53.4 101V103C57.7896 103 61.2677 101.968 63.6479 99.7282C66.0394 97.4774 67.15 94.1702 67.15 90H65.15ZM53.4 101H0.15V103H53.4V101ZM1.15 102V94.5H-0.85V102H1.15Z" fill="#A9A7A7" mask="url(#path-1-outside-1_240_1668)"/>
</svg>
