<svg width="68" height="102" viewBox="0 0 68 102" fill="none" xmlns="http://www.w3.org/2000/svg">
<mask id="path-1-outside-1_240_1673" maskUnits="userSpaceOnUse" x="-2" y="-1" width="71" height="104" fill="black">
<rect fill="white" x="-2" y="-1" width="71" height="104"/>
<path d="M33.9 102C26.7 102 20.35 100.65 14.85 97.95C9.45 95.15 4.5 91.15 4.24683e-07 85.95L2.4 83.25C6.3 87.55 10.5 90.75 15 92.85C19.5 94.95 24.55 96 30.15 96C36.65 96 42 93.95 46.2 89.85C50.5 85.65 52.65 79.45 52.65 71.25C52.65 66.25 51.7 62 49.8 58.5C47.9 55 45.45 52.4 42.45 50.7C39.45 48.9 36.35 48 33.15 48C28.95 48 25.85 48.15 23.85 48.45C21.85 48.75 18.95 49.35 15.15 50.25L11.25 43.95L51.9 6H24.15C18.05 6 13.4 7.3 10.2 9.89999C7 12.5 5.4 16.45 5.4 21.75H2.4V12C2.4 4 6.65 -3.93391e-06 15.15 -3.93391e-06H62.85V6L22.65 43.5C26.55 42.5 31.05 42 36.15 42C40.15 42 44.55 42.85 49.35 44.55C54.15 46.15 58.4 49.15 62.1 53.55C65.8 57.85 67.65 63.75 67.65 71.25C67.65 79.25 65.75 85.55 61.95 90.15C58.25 94.75 53.85 97.85 48.75 99.45C43.65 101.15 38.7 102 33.9 102Z"/>
</mask>
<path d="M14.85 97.95L14.3897 98.8378L14.3995 98.8428L14.4093 98.8477L14.85 97.95ZM4.76837e-07 85.95L-0.747409 85.2856L-1.3301 85.9412L-0.756168 86.6044L4.76837e-07 85.95ZM2.4 83.25L3.14072 82.5782L2.39251 81.7532L1.65259 82.5856L2.4 83.25ZM15 92.85L14.5771 93.7562L15 92.85ZM46.2 89.85L46.8985 90.5656L46.8987 90.5654L46.2 89.85ZM49.8 58.5L48.9211 58.9771L49.8 58.5ZM42.45 50.7L41.9355 51.5575L41.9462 51.5639L41.957 51.57L42.45 50.7ZM23.85 48.45L23.9983 49.4389L23.85 48.45ZM15.15 50.25L14.2997 50.7764L14.6791 51.3892L15.3805 51.2231L15.15 50.25ZM11.25 43.95L10.5676 43.219L9.96795 43.7788L10.3997 44.4763L11.25 43.95ZM51.9 6L52.5824 6.73096L54.4365 5H51.9V6ZM10.2 9.89999L9.56941 9.12388H9.56941L10.2 9.89999ZM5.4 21.75V22.75H6.4V21.75H5.4ZM2.4 21.75H1.4V22.75H2.4V21.75ZM62.85 -3.8147e-06H63.85V-1H62.85V-3.8147e-06ZM62.85 6L63.5321 6.73124L63.85 6.43471V6H62.85ZM22.65 43.5L21.9679 42.7688L22.8984 44.4687L22.65 43.5ZM49.35 44.55L49.0162 45.4926L49.0249 45.4957L49.0338 45.4987L49.35 44.55ZM62.1 53.55L61.3346 54.1936L61.342 54.2022L62.1 53.55ZM61.95 90.15L61.179 89.5131L61.1708 89.5232L61.95 90.15ZM48.75 99.45L48.4507 98.4958L48.4422 98.4985L48.4338 98.5013L48.75 99.45ZM33.9 101C26.8262 101 20.6315 99.6742 15.2907 97.0523L14.4093 98.8477C20.0685 101.626 26.5738 103 33.9 103V101ZM15.3103 97.0622C10.0366 94.3277 5.18399 90.4122 0.756169 85.2956L-0.756168 86.6044C3.81601 91.8878 8.86344 95.9723 14.3897 98.8378L15.3103 97.0622ZM0.74741 86.6144L3.14741 83.9144L1.65259 82.5856L-0.747409 85.2856L0.74741 86.6144ZM1.65928 83.9218C5.6337 88.3039 9.93806 91.5913 14.5771 93.7562L15.4229 91.9438C11.0619 89.9087 6.9663 86.7961 3.14072 82.5782L1.65928 83.9218ZM14.5771 93.7562C19.2255 95.9254 24.4226 97 30.15 97V95C24.6774 95 19.7745 93.9746 15.4229 91.9438L14.5771 93.7562ZM30.15 97C36.8804 97 42.4909 94.8683 46.8985 90.5656L45.5015 89.1344C41.5091 93.0317 36.4196 95 30.15 95V97ZM46.8987 90.5654C51.4532 86.1168 53.65 79.6184 53.65 71.25H51.65C51.65 79.2816 49.5468 85.1832 45.5013 89.1346L46.8987 90.5654ZM53.65 71.25C53.65 66.1252 52.6762 61.7021 50.6789 58.0229L48.9211 58.9771C50.7238 62.2978 51.65 66.3748 51.65 71.25H53.65ZM50.6789 58.0229C48.7037 54.3844 46.1298 51.6358 42.943 49.83L41.957 51.57C44.7702 53.1642 47.0963 55.6156 48.9211 58.9771L50.6789 58.0229ZM42.9645 49.8425C39.8241 47.9582 36.5479 47 33.15 47V49C36.1521 49 39.076 49.8418 41.9355 51.5575L42.9645 49.8425ZM33.15 47C28.9413 47 25.7792 47.1494 23.7017 47.4611L23.9983 49.4389C25.9208 49.1506 28.9587 49 33.15 49V47ZM23.7017 47.4611C21.6593 47.7674 18.7267 48.3752 14.9195 49.2769L15.3805 51.2231C19.1733 50.3248 22.0407 49.7326 23.9983 49.4389L23.7017 47.4611ZM16.0003 49.7236L12.1003 43.4236L10.3997 44.4763L14.2997 50.7764L16.0003 49.7236ZM11.9324 44.681L52.5824 6.73096L51.2176 5.26904L10.5676 43.219L11.9324 44.681ZM51.9 5H24.15V7H51.9V5ZM24.15 5C17.9266 5 13.0156 6.32384 9.56941 9.12388L10.8306 10.6761C13.7844 8.27615 18.1734 7 24.15 7V5ZM9.56941 9.12388C6.07193 11.9656 4.4 16.242 4.4 21.75H6.4C6.4 16.658 7.92807 13.0344 10.8306 10.6761L9.56941 9.12388ZM5.4 20.75H2.4V22.75H5.4V20.75ZM3.4 21.75V12H1.4V21.75H3.4ZM3.4 12C3.4 8.17016 4.41438 5.47735 6.27287 3.7282C8.14273 1.96832 11.0396 0.999996 15.15 0.999996V-1C10.7604 -1 7.28227 0.0316734 4.90214 2.2718C2.51062 4.52264 1.4 7.82983 1.4 12H3.4ZM15.15 0.999996H62.85V-1H15.15V0.999996ZM61.85 -3.8147e-06V6H63.85V-3.8147e-06H61.85ZM62.1679 5.26876L21.9679 42.7688L23.3321 44.2312L63.5321 6.73124L62.1679 5.26876ZM22.8984 44.4687C26.699 43.4941 31.1127 43 36.15 43V41C30.9873 41 26.401 41.5059 22.4016 42.5313L22.8984 44.4687ZM36.15 43C40.01 43 44.2955 43.8207 49.0162 45.4926L49.6838 43.6074C44.8045 41.8793 40.29 41 36.15 41V43ZM49.0338 45.4987C53.6359 47.0327 57.7368 49.9151 61.3346 54.1936L62.8654 52.9064C59.0632 48.3849 54.6641 45.2673 49.6662 43.6013L49.0338 45.4987ZM61.342 54.2022C64.8415 58.2692 66.65 63.9112 66.65 71.25H68.65C68.65 63.5888 66.7585 57.4308 62.858 52.8978L61.342 54.2022ZM66.65 71.25C66.65 79.097 64.7872 85.1453 61.179 89.5131L62.721 90.7869C66.7128 85.9547 68.65 79.403 68.65 71.25H66.65ZM61.1708 89.5232C57.5813 93.9858 53.3423 96.9612 48.4507 98.4958L49.0493 100.404C54.3577 98.7388 58.9187 95.5142 62.7292 90.7768L61.1708 89.5232ZM48.4338 98.5013C43.4236 100.171 38.5805 101 33.9 101V103C38.8195 103 43.8764 102.129 49.0662 100.399L48.4338 98.5013Z" fill="#A9A7A7" mask="url(#path-1-outside-1_240_1673)"/>
</svg>
