<svg width="60" height="60" viewBox="0 0 60 60" fill="none" xmlns="http://www.w3.org/2000/svg">
<rect x="1" y="1" width="58" height="58" rx="29" fill="black"/>
<rect x="1" y="1" width="58" height="58" rx="29" stroke="#A9A7A7" stroke-width="2"/>
<path d="M42.3843 28.015L31.9762 17.594C31.7782 17.4043 31.5448 17.2555 31.2892 17.1563C30.7824 16.9479 30.214 16.9479 29.7072 17.1563C29.4517 17.2555 29.2182 17.4043 29.0203 17.594L18.6122 28.015C18.4181 28.2094 18.2641 28.4401 18.1591 28.694C18.0541 28.9479 18 29.22 18 29.4948C18 30.0498 18.2202 30.5821 18.6122 30.9746C19.0042 31.367 19.5358 31.5875 20.0901 31.5875C20.6445 31.5875 21.1761 31.367 21.5681 30.9746L28.4166 24.0967V39.9158C28.4166 40.4686 28.6359 40.9987 29.0263 41.3896C29.4167 41.7804 29.9461 42 30.4982 42C31.0503 42 31.5798 41.7804 31.9701 41.3896C32.3605 40.9987 32.5798 40.4686 32.5798 39.9158V24.0967L39.4284 30.9746C39.6219 31.1699 39.8521 31.325 40.1058 31.4308C40.3594 31.5366 40.6315 31.5911 40.9063 31.5911C41.1811 31.5911 41.4532 31.5366 41.7069 31.4308C41.9605 31.325 42.1907 31.1699 42.3843 30.9746C42.5794 30.7808 42.7342 30.5503 42.8399 30.2963C42.9456 30.0424 43 29.7699 43 29.4948C43 29.2197 42.9456 28.9472 42.8399 28.6933C42.7342 28.4393 42.5794 28.2088 42.3843 28.015Z" fill="#A9A7A7"/>
</svg>
