<svg width="217" height="36" viewBox="0 0 217 36" fill="none" xmlns="http://www.w3.org/2000/svg">
<path d="M48.5151 8.98438H46.9448V8.07031H54.4448V8.98438H52.1831L57.3745 22.2852L62.2495 8.98438H60.0464V8.07031H65.3198V8.98438H63.5151L57.0112 26.2344H56.0151L48.5151 8.98438ZM65.3901 25.0859H66.6558L73.2651 8.07031H74.6245L81.6909 25.0859H82.8862V26H76.4995V25.0859H78.2573L76.5698 20.9961H69.4565L67.9097 25.0859H70.019V26H65.3901V25.0859ZM76.1948 20.082L72.8667 11.9844L69.8081 20.082H76.1948ZM83.9526 25.0742L86.4604 25.0859L86.4722 8.97266H84.5034V8.07031H91.7104V8.97266H89.6245V25.0859H93.2104C95.2651 25.0859 96.5112 24.1367 96.9487 22.2383C97.0737 21.6914 97.1558 21.1289 97.1948 20.5508H98.1089V26H83.9526V25.0742ZM100.125 25.0859H102.468L102.48 8.98438H100.125V8.07031H108.023C112.734 8.07031 115.781 9.55859 117.164 12.5352C117.734 13.7617 118.019 15.2148 118.019 16.8945C118.019 19.1289 117.371 21.0781 116.074 22.7422C115.027 24.0781 113.507 25.0195 111.515 25.5664C110.468 25.8555 109.25 26 107.859 26H100.125V25.0859ZM107.718 25.0859C110.179 25.0859 111.941 24.4727 113.003 23.2461C114.066 22.0195 114.597 19.9297 114.597 16.9766V16.6133C114.55 13.7852 113.98 11.8086 112.886 10.6836C111.8 9.55078 110.128 8.98438 107.871 8.98438H105.632V25.0859H107.718ZM120 25.0742H122.343L122.355 8.98438H120V8.07031H135.152V13.1797H134.238C134.199 12.5312 134.144 11.957 134.074 11.457C134.003 10.9492 133.855 10.5195 133.628 10.168C133.175 9.44922 132.253 9.05469 130.863 8.98438H125.507V16.3438H128.437C129.101 16.3438 129.609 16.2383 129.96 16.0273C130.32 15.8086 130.539 15.4297 130.617 14.8906C130.632 14.7344 130.644 14.5703 130.652 14.3984C130.667 14.2188 130.683 14.043 130.699 13.8711H131.683V19.918H130.699C130.683 19.7383 130.667 19.5312 130.652 19.2969C130.644 19.0625 130.632 18.8672 130.617 18.7109C130.539 18.1719 130.316 17.7969 129.949 17.5859C129.589 17.3672 129.085 17.2578 128.437 17.2578H125.507V25.0859H130.523C132.578 25.0859 133.824 24.1367 134.261 22.2383C134.386 21.6914 134.468 21.1289 134.507 20.5508H135.421V26H120V25.0742ZM137.894 25.0859H140.05V8.98438H137.871V8.07031H143.988L149.273 21.1133L154.523 8.07031H160.441V8.98438H158.156V25.0859H160.652V26H152.859V25.0859H154.992L155.003 9.48828L148.488 25.7539H148.019L141.117 9.40625V25.0859H143.238V26H137.894V25.0859ZM161.437 25.0859H162.703L169.312 8.07031H170.671L177.738 25.0859H178.933V26H172.546V25.0859H174.304L172.617 20.9961H165.503L163.957 25.0859H166.066V26H161.437V25.0859ZM172.242 20.082L168.914 11.9844L165.855 20.082H172.242ZM188.015 8.07031C192.507 8.07031 194.753 9.57812 194.753 12.5938C194.753 13.9609 194.339 15.0508 193.511 15.8633C192.683 16.6758 191.574 17.1953 190.183 17.4219C192.019 17.7266 193.277 18.6719 193.957 20.2578C194.23 20.8984 194.468 21.6055 194.671 22.3789C194.882 23.1445 195.07 23.6875 195.234 24.0078C195.593 24.7266 196.125 25.0859 196.828 25.0859H197.296L197.32 26.0586H195.667C194.136 26.0586 193.105 25.8516 192.574 25.4375C192.035 25.0156 191.625 24.1836 191.343 22.9414C191.085 21.8086 190.875 21.0352 190.71 20.6211C190.367 19.7305 189.921 19.0312 189.375 18.5234C188.828 18.0156 188.121 17.7617 187.253 17.7617H185.109V25.0859H187.851V26H180.058V25.0859H181.945L181.957 8.98438H180.058V8.07031H188.015ZM187.804 16.9531C189.226 16.9531 190.226 16.4961 190.804 15.582C191.226 14.918 191.437 13.9766 191.437 12.7578C191.437 11.5391 191.191 10.6406 190.699 10.0625C190.089 9.34375 189.054 8.98438 187.593 8.98438H185.109V16.9531H187.804Z" fill="#AEAFAF"/>
<path d="M3.3949 0.642063C3.34439 0.706742 3.29387 0.718156 3.11424 0.706742C2.89533 0.695328 2.89533 0.695328 2.92339 0.798053C2.96268 0.915996 2.87287 1.05677 2.75499 1.05677C2.62589 1.05677 2.65396 1.11764 2.81674 1.18993C2.94023 1.24319 2.95707 1.27363 2.92901 1.38016C2.88971 1.50952 2.88971 1.50952 3.08618 1.48669C3.24896 1.47147 3.29387 1.48289 3.37245 1.56659C3.4791 1.67692 3.56892 1.69594 3.56892 1.60844C3.56892 1.51332 3.82151 1.45625 3.99552 1.50952C4.13024 1.54756 4.13585 1.54756 4.10217 1.46767C4.07972 1.41821 4.06288 1.37255 4.06288 1.36114C4.05727 1.247 4.09656 1.20134 4.21444 1.1633C4.38845 1.11003 4.38845 1.0872 4.23128 1.03774C4.12463 1.00731 4.10217 0.969261 4.10779 0.847513V0.695328L3.9001 0.706742C3.7317 0.718156 3.67557 0.706742 3.61382 0.642063C3.52401 0.543143 3.4791 0.543143 3.3949 0.642063Z" fill="#AEAFAF"/>
<path d="M33.2106 0.619346C33.1264 0.703048 33.0815 0.718266 32.9075 0.706852L32.7055 0.695438V0.847623C32.7111 0.969371 32.6886 1.00742 32.5876 1.03785C32.4304 1.08351 32.4248 1.12156 32.5707 1.15199C32.6998 1.17863 32.7672 1.3194 32.7111 1.43734C32.6774 1.51343 32.6886 1.51724 32.8682 1.49441C33.0591 1.46778 33.1994 1.52104 33.2556 1.63518C33.2724 1.66562 33.3341 1.64279 33.424 1.5705C33.5587 1.46397 33.5867 1.46017 33.7439 1.50202L33.9179 1.54387L33.8842 1.39929C33.8562 1.27374 33.8674 1.24711 33.9965 1.19004C34.1761 1.11014 34.1761 1.08731 34.019 1.03785C33.9123 1.00742 33.8899 0.969371 33.8955 0.847623V0.695438H33.6709C33.4913 0.695438 33.4296 0.676415 33.379 0.604127L33.3117 0.516621L33.2106 0.619346Z" fill="#AEAFAF"/>
<path d="M8.95234 0.0676224C8.81201 0.105669 8.5931 0.19698 8.45838 0.276877C7.65007 0.752455 7.73988 1.63132 8.638 2.027C8.90744 2.14495 9.23301 2.22865 9.23301 2.17538C9.23301 2.16397 9.15442 2.07646 9.05338 1.98135C8.70536 1.63513 8.56503 1.22423 8.66607 0.851375C8.72781 0.615488 8.94673 0.288291 9.13197 0.155129C9.30598 0.0295761 9.23301 -0.00847006 8.95234 0.0676224Z" fill="#AEAFAF"/>
<path d="M13.5252 0.113287C12.947 0.314932 12.6326 0.668762 12.6383 1.11771C12.6383 1.62372 13.0929 2.02701 13.8227 2.1792L13.9461 2.20203V1.11771C13.9461 -0.107381 13.9742 -0.0465071 13.5252 0.113287Z" fill="#AEAFAF"/>
<path d="M17.8165 0.0598741C17.4406 0.15499 16.958 0.493601 16.8346 0.748511C16.5989 1.23931 16.9075 1.8062 17.5584 2.06111C17.6819 2.11437 17.94 2.17525 18.1252 2.20188C18.417 2.23992 18.5067 2.23992 18.7929 2.18285C19.5897 2.02306 20.033 1.63499 20.033 1.09473C20.0274 0.676223 19.6963 0.307175 19.1408 0.116943C18.7705 -0.012414 18.1813 -0.0390463 17.8165 0.0598741Z" fill="#AEAFAF"/>
<path d="M22.8096 1.09109C22.8096 1.7531 22.832 2.164 22.8657 2.17921C22.9555 2.21726 23.4439 2.04986 23.6684 1.90148C24.4543 1.39166 24.2971 0.508984 23.3597 0.14374C23.1969 0.0828664 23.006 0.0296016 22.9387 0.0296016H22.8096V1.09109Z" fill="#AEAFAF"/>
<path d="M27.5786 0.052202C27.5786 0.0636158 27.6572 0.151122 27.7526 0.246238C28.0501 0.539194 28.1568 0.797909 28.1287 1.18979C28.1062 1.47894 28.0782 1.56644 27.9322 1.76428C27.8368 1.88984 27.7189 2.01539 27.6684 2.04202C27.5281 2.12192 27.5561 2.20942 27.7077 2.17899C28.3925 2.03822 28.8753 1.6121 28.8865 1.14032C28.8921 0.698988 28.6283 0.375595 28.0838 0.151122C27.8087 0.0407882 27.5786 -0.00486732 27.5786 0.052202Z" fill="#AEAFAF"/>
<path d="M0.610715 3.61359C0.661216 3.7011 1.18867 4.59899 1.51974 5.16588C1.69369 5.47025 1.86764 5.74038 1.9013 5.76321C1.95742 5.80125 2.03036 5.78984 2.26604 5.71755C2.42315 5.66809 2.55782 5.61863 2.55782 5.60722C2.55782 5.59961 2.39509 5.31046 2.19309 4.96804C1.99108 4.62943 1.82836 4.32886 1.82836 4.30603C1.82836 4.28321 1.87325 4.23755 1.92936 4.20331C2.01914 4.14624 2.19309 4.13863 3.19189 4.13863C3.8933 4.13863 4.35903 4.12341 4.38148 4.10058C4.42076 4.05873 4.57787 3.65925 4.57787 3.60598C4.57787 3.58316 3.80352 3.56794 2.58027 3.56794C1.0035 3.56794 0.58827 3.57935 0.610715 3.61359Z" fill="#AEAFAF"/>
<path d="M5.18789 3.57567C5.18789 3.58328 5.14299 3.70122 5.08685 3.8458C5.03634 3.98657 5.00266 4.10832 5.01388 4.11973C5.03072 4.13115 5.36752 4.13875 5.76044 4.13875C6.58559 4.13875 6.55753 4.15017 6.61927 3.78492L6.65295 3.56806H5.92323C5.52469 3.56806 5.19351 3.57187 5.18789 3.57567Z" fill="#AEAFAF"/>
<path d="M7.19186 3.7657C7.17503 3.87603 7.1582 4.00539 7.1582 4.05104V4.13855H18.3783C27.8873 4.13855 29.604 4.13094 29.632 4.08529C29.6489 4.05865 29.6433 3.9331 29.6152 3.81135L29.5703 3.58688L18.4007 3.57547L7.23113 3.56786L7.19186 3.7657Z" fill="#AEAFAF"/>
<path d="M30.1868 3.82264C30.2092 3.96722 30.2373 4.09277 30.2541 4.10799C30.2878 4.15364 31.7192 4.14603 31.7585 4.10418C31.7753 4.08135 31.7472 3.9558 31.6967 3.81884L31.6069 3.56773H30.8772H30.1475L30.1868 3.82264Z" fill="#AEAFAF"/>
<path d="M32.2339 3.62852C32.2339 3.72364 32.3573 4.03942 32.4191 4.08888C32.4583 4.12693 32.7726 4.13834 33.6311 4.13834C34.8656 4.13834 34.9273 4.14595 34.9273 4.32477C34.9273 4.37423 34.7702 4.6824 34.5794 5.00199C34.1978 5.65639 34.1978 5.63356 34.6355 5.7515L34.8712 5.81238L34.9834 5.64878C35.1461 5.4167 36.1618 3.65135 36.1618 3.6057C36.1618 3.58287 35.4604 3.56765 34.1978 3.56765C32.4583 3.56765 32.2339 3.57526 32.2339 3.62852Z" fill="#AEAFAF"/>
<path d="M2.58032 4.5835C2.93395 5.19985 3.0406 5.35583 3.11919 5.35583C3.31004 5.35583 4.12957 4.70905 4.12957 4.55686C4.12957 4.53404 3.85453 4.51882 3.33811 4.51882C2.61961 4.51882 2.54664 4.52643 2.58032 4.5835Z" fill="#AEAFAF"/>
<path d="M4.69529 4.69395C4.50451 4.98691 4.09489 5.34074 3.67966 5.56902L3.29248 5.78588L3.43276 6.03699C3.78066 6.66475 3.92655 6.87781 4.01633 6.87781C4.16784 6.87781 4.62796 6.65714 4.97586 6.42506C5.5931 6.00655 6.1935 5.24562 6.39551 4.62166L6.42917 4.51894H5.62115H4.80752L4.69529 4.69395Z" fill="#AEAFAF"/>
<path d="M7.01711 4.56484C7.00028 4.59147 6.92735 4.76268 6.85442 4.9415C6.50098 5.77091 5.78851 6.51661 4.91334 6.97317C4.73943 7.06448 4.4982 7.17101 4.386 7.20906C4.22331 7.25852 4.18404 7.29276 4.20648 7.35363C4.28502 7.54767 5.69314 9.90273 5.73802 9.91034C5.76607 9.91795 6.02974 9.70489 6.31585 9.44237C7.84739 8.03466 10.0353 6.85903 12.3971 6.178C13.7604 5.78232 15.0226 5.55024 16.543 5.41327C17.5359 5.32196 19.8417 5.34859 20.7954 5.46273C22.8991 5.71003 24.7785 6.18942 26.4503 6.91229C28.1501 7.64278 29.7041 8.6472 30.7364 9.68206C30.8654 9.81142 31 9.92175 31.0393 9.92175C31.073 9.92175 31.1515 9.83044 31.2132 9.72011C31.2749 9.61358 31.6172 9.02006 31.9818 8.40371C32.3409 7.79116 32.627 7.28515 32.6157 7.27754C32.6045 7.27373 32.4643 7.22047 32.296 7.1596C31.9145 7.02263 31.1796 6.55846 30.8542 6.24649C30.4166 5.83178 30.0688 5.28392 29.7883 4.56484C29.7715 4.5306 27.4489 4.51919 18.4055 4.51919C9.36772 4.51919 7.03394 4.5306 7.01711 4.56484Z" fill="#AEAFAF"/>
<path d="M30.3828 4.56849C30.3828 4.64458 30.6578 5.19245 30.8149 5.42453C31.1628 5.94576 31.7744 6.45939 32.3468 6.72571C32.7788 6.91975 32.8237 6.92736 32.9079 6.80941C33.0594 6.58114 33.469 5.84684 33.469 5.80119C33.469 5.77075 33.368 5.69846 33.2389 5.63759C32.863 5.46258 32.3692 5.0669 32.1672 4.78155L31.982 4.51903H31.1852C30.5736 4.51903 30.3828 4.53044 30.3828 4.56849Z" fill="#AEAFAF"/>
<path d="M32.6509 4.5796C32.7295 4.72037 33.1056 5.06279 33.3245 5.18834C33.7342 5.42803 33.7118 5.43564 33.97 5.00191C34.0935 4.78885 34.2001 4.59101 34.2001 4.56438C34.2001 4.53014 33.9981 4.51873 33.4087 4.51873C32.7126 4.51873 32.6228 4.52633 32.6509 4.5796Z" fill="#AEAFAF"/>
<path d="M16.4708 5.8126C15.59 5.8963 15.2478 5.94196 14.5073 6.08273C11.1357 6.72571 8.3643 8.08016 6.37274 10.0586C6.1876 10.2412 6.03613 10.42 6.03613 10.4504C6.03613 10.5379 6.88886 11.9761 6.93935 11.9761C6.96179 11.9761 7.07399 11.8505 7.18619 11.6984C8.23527 10.3021 9.94072 9.05034 11.893 8.24756C15.5059 6.77137 20.1286 6.63059 23.9041 7.88612C25.2337 8.32746 26.1986 8.79543 27.2477 9.50309C28.2295 10.1689 28.9139 10.8005 29.5871 11.6641L29.862 12.0179L30.0079 11.7783C30.3445 11.2304 30.7764 10.4847 30.7764 10.4542C30.7764 10.3972 30.3164 9.92921 29.8788 9.54113C28.6053 8.41496 26.8999 7.45239 25.0486 6.80941C23.4946 6.27296 21.9518 5.95337 20.1454 5.79738C19.231 5.71368 17.4021 5.72129 16.4708 5.8126Z" fill="#AEAFAF"/>
<path d="M2.43376 6.08642C2.26549 6.13588 2.16454 6.18914 2.17014 6.22719C2.17014 6.26143 2.27671 6.46688 2.40572 6.68755L2.64129 7.08704L2.94417 7.07562C3.11243 7.06801 3.2807 7.05279 3.31996 7.03758C3.37044 7.01855 3.30874 6.88159 3.09561 6.52015C2.93856 6.25002 2.78151 6.02174 2.75347 6.01794C2.71981 6.01413 2.57959 6.04457 2.43376 6.08642Z" fill="#AEAFAF"/>
<path d="M33.9901 6.04826C33.9677 6.07489 33.8275 6.30317 33.676 6.55047C33.4797 6.88527 33.4292 7.01463 33.4797 7.03365C33.5919 7.07931 34.0911 7.11736 34.1416 7.08311C34.192 7.04126 34.6464 6.25371 34.6464 6.20044C34.6464 6.18142 34.5286 6.13196 34.3827 6.09391C34.2313 6.05206 34.0967 6.01782 34.0742 6.01021C34.0574 6.0026 34.0182 6.02162 33.9901 6.04826Z" fill="#AEAFAF"/>
<path d="M3.175 7.45617C3.03467 7.479 2.91679 7.49802 2.90557 7.50563C2.89434 7.50943 3.20868 8.0611 3.59599 8.72691C3.98892 9.39653 4.43237 10.1575 4.58954 10.4238C4.74671 10.6939 4.89266 10.9108 4.91511 10.9108C4.94318 10.9108 5.04983 10.8004 5.16209 10.6635L5.36417 10.4162L5.22945 10.1765C5.15648 10.0471 4.76355 9.36989 4.3594 8.67365C3.78685 7.69966 3.59599 7.41051 3.52302 7.41432C3.4725 7.41812 3.31533 7.43714 3.175 7.45617Z" fill="#AEAFAF"/>
<path d="M17.0202 7.46747C15.5784 7.58922 14.2937 7.84793 13.0202 8.27405C10.664 9.06922 8.66123 10.4579 7.53923 12.0825C7.42141 12.2613 7.30921 12.4477 7.29238 12.5048C7.26994 12.5771 7.44946 12.9271 7.9151 13.7261C8.27414 14.3424 8.71172 15.0881 8.88003 15.3811C9.17736 15.8947 9.69348 16.7812 10.7201 18.5389C10.9894 18.9993 11.4999 19.8705 11.8533 20.4793C12.2068 21.0842 12.6612 21.868 12.8632 22.218L13.2334 22.8534L13.5532 22.9485C14.7033 23.2985 16.1338 23.5496 17.2951 23.6029L17.8393 23.6295L17.7046 23.4811C17.6261 23.4012 17.3736 23.1349 17.1436 22.8952C16.1058 21.8299 16.1338 21.8718 16.246 21.7538C16.2853 21.7082 16.4816 21.693 17.1829 21.6777L18.0693 21.6587L18.0861 21.1831L18.1029 20.7038L17.9066 20.6581C17.5083 20.5592 17.1436 20.1863 17.1436 19.8744C17.1436 19.57 17.4578 19.2352 17.8673 19.1096L18.0973 19.0411V18.4628V17.8845L17.6093 17.8579C16.9641 17.8237 16.5041 17.7362 15.9431 17.5497C15.5279 17.4128 15.4887 17.3861 15.4718 17.2758C15.4606 17.1845 15.483 17.1464 15.5728 17.1122C15.7131 17.0627 15.7355 17.0627 16.2965 17.2225C17.1773 17.4736 18.4564 17.5611 19.4269 17.4356C19.9094 17.3747 20.5433 17.2377 20.8406 17.1312C21.0594 17.0551 21.2726 17.0818 21.3231 17.1883C21.3904 17.3329 21.2951 17.409 20.8855 17.5421C20.2909 17.7362 19.9318 17.8046 19.2754 17.8503L18.6864 17.8921L18.6696 18.4476L18.6527 19.0069L18.9669 19.1248C19.2923 19.2504 19.4942 19.4216 19.612 19.6765C19.7803 20.0303 19.4325 20.5021 18.8827 20.6657C18.8042 20.6885 18.7257 20.7228 18.7032 20.7456C18.6303 20.8103 18.6527 21.5826 18.7257 21.6321C18.7705 21.6625 19.051 21.6777 19.612 21.6777C20.4816 21.6777 20.5658 21.693 20.5658 21.8604C20.5658 21.9098 20.375 22.1495 20.1338 22.393C19.8982 22.6365 19.5447 23.0056 19.3484 23.211C19.1464 23.4165 19.0005 23.5953 19.0174 23.6105C19.0679 23.6447 20.3077 23.5534 20.7677 23.4849C21.7663 23.3328 22.4788 23.1806 23.2137 22.9599C23.4605 22.8838 23.5559 22.8305 23.6232 22.7354C23.6962 22.6289 24.2628 21.6549 25.5362 19.4635C25.8841 18.8661 26.5685 17.6867 27.4942 16.104C29.1996 13.1782 29.5418 12.5885 29.5418 12.5428C29.5418 12.5238 29.4184 12.3222 29.2613 12.1015C27.7522 9.92906 24.9809 8.34253 21.5756 7.69955C20.1955 7.44084 18.4452 7.35333 17.0202 7.46747ZM18.591 9.28228C18.6415 9.31652 18.6583 9.70459 18.6583 10.8003C18.6583 12.2613 18.6583 12.2765 18.5405 12.3336C18.4732 12.364 18.3778 12.3792 18.3273 12.3678C18.1029 12.3146 18.0973 12.2803 18.0973 10.7927C18.0973 9.53719 18.1086 9.34695 18.1871 9.29749C18.2881 9.22521 18.4956 9.2176 18.591 9.28228ZM14.7145 9.84536C14.8379 10.0128 16.0328 12.2537 16.0609 12.3754C16.0945 12.52 15.9823 12.5961 15.7579 12.5771C15.5784 12.5657 15.6233 12.6303 14.7033 10.9373C14.2208 10.0394 14.1591 9.91004 14.2208 9.82253C14.3049 9.69318 14.6079 9.70459 14.7145 9.84536ZM22.5798 9.81873C22.6359 9.89102 22.6359 9.93667 22.5629 10.0584C22.518 10.1383 22.2095 10.7014 21.8841 11.3101C21.5531 11.9151 21.2502 12.4515 21.2053 12.4972C21.0538 12.657 20.7341 12.5885 20.7341 12.3983C20.7341 12.345 20.9753 11.858 21.2726 11.3101C21.5699 10.7661 21.8617 10.2258 21.9234 10.1117C21.9795 9.99755 22.0692 9.86438 22.1141 9.81492C22.2263 9.70078 22.4844 9.70078 22.5798 9.81873ZM12.1843 11.8884C12.5827 12.2613 13.0483 12.6988 13.2278 12.8624C13.5644 13.1706 13.6317 13.3304 13.4747 13.4217C13.2671 13.5358 13.1549 13.4598 12.0834 12.4515C11.5055 11.9075 11.0287 11.4395 11.0287 11.4129C11.0287 11.2987 11.1465 11.215 11.3092 11.215C11.455 11.215 11.5392 11.2835 12.1843 11.8884ZM25.6821 11.2797C25.7382 11.3139 25.7831 11.3634 25.7831 11.39C25.7831 11.4281 24.8462 12.3374 23.8588 13.2543C23.6457 13.4521 23.4718 13.4978 23.3147 13.4027C23.152 13.3038 23.1744 13.2277 23.4437 12.9804C23.5783 12.8548 23.8869 12.5657 24.1281 12.3374C25.1772 11.3444 25.3343 11.215 25.4577 11.215C25.525 11.215 25.626 11.2417 25.6821 11.2797ZM19.1071 12.6988C20.6836 12.8092 22.1814 13.2467 23.6176 14.0228C24.1674 14.3196 25.2726 15.0881 25.3175 15.2023C25.3623 15.3278 25.2726 15.4153 25.0931 15.4305C24.964 15.442 24.8462 15.3735 24.3189 15.0044C22.8939 14 21.6597 13.4864 19.8645 13.163C19.4101 13.0793 18.4003 13.0374 17.7776 13.0793C15.7748 13.2086 14.0076 13.8783 12.19 15.2023C11.859 15.4382 11.6907 15.4914 11.5448 15.3925C11.3765 15.2784 11.4719 15.1566 12.016 14.7609C12.8968 14.1256 13.9066 13.6043 14.9389 13.2543C15.8814 12.9347 16.4872 12.8054 17.4522 12.7217C18.159 12.657 18.4395 12.6532 19.1071 12.6988ZM10.765 13.6424C11.3709 13.9201 11.887 14.175 11.9151 14.2093C12.0441 14.3729 11.7692 14.5327 11.5224 14.4452C11.4214 14.4109 9.59811 13.5853 9.32322 13.4559C9.30078 13.4407 9.27834 13.3837 9.27834 13.3228C9.27834 13.2086 9.43542 13.1059 9.57567 13.1288C9.62055 13.1364 10.1535 13.3684 10.765 13.6424ZM27.4212 13.182C27.5783 13.2771 27.5446 13.4065 27.3427 13.5092C26.6358 13.863 25.1828 14.487 25.0874 14.4794C25.0257 14.4718 24.936 14.4223 24.8911 14.3653C24.8182 14.2777 24.8182 14.2587 24.8855 14.1979C24.9865 14.1218 27.1912 13.1173 27.2641 13.1173C27.2922 13.1173 27.3651 13.144 27.4212 13.182ZM20.0047 14.1027C20.9753 14.2625 21.7439 14.5479 22.5012 15.0273C23.0229 15.3583 23.0734 15.4115 22.9556 15.5333C22.8546 15.6398 22.1085 15.986 21.4353 16.2447C19.8925 16.8345 17.9178 16.9372 16.1955 16.5073C15.6289 16.3665 15.2923 16.2447 14.462 15.8681C13.6373 15.4952 13.6317 15.4838 14.1759 15.1072C15.0511 14.506 16.1114 14.1484 17.368 14.0304C17.9739 13.9734 19.455 14.0152 20.0047 14.1027Z" fill="#AEAFAF"/>
<path d="M17.5199 14.4111C17.0429 14.4682 16.6613 14.6203 16.4818 14.822C16.3471 14.9818 16.3303 15.0388 16.3359 15.3242C16.3359 15.9101 16.6445 16.1916 17.4301 16.3324C18.0754 16.4504 18.9563 16.4389 19.6409 16.3096C19.9495 16.2525 20.3086 15.9938 20.3872 15.7693C20.6117 15.172 20.3143 14.6203 19.6858 14.4682C19.3772 14.3921 17.9688 14.354 17.5199 14.4111Z" fill="#AEAFAF"/>
<path d="M15.4897 14.8753C15.1304 15.0275 14.5635 15.3585 14.5635 15.4155C14.5635 15.4612 15.6356 15.9292 15.8208 15.9634C15.8994 15.9786 15.9219 15.9672 15.8938 15.9254C15.7423 15.6552 15.7142 15.1264 15.8321 14.8372C15.877 14.7269 15.8265 14.7307 15.4897 14.8753Z" fill="#AEAFAF"/>
<path d="M20.9812 14.8561C21.071 15.149 21.0766 15.4306 20.9924 15.6779C20.8857 15.9899 20.8857 15.9708 20.9755 15.9708C21.0597 15.9708 22.2498 15.4534 22.2498 15.4192C22.2498 15.3431 21.1327 14.7534 20.9924 14.7534C20.9699 14.7534 20.9587 14.799 20.9812 14.8561Z" fill="#AEAFAF"/>
<path d="M33.1674 7.44095C33.1561 7.45617 32.9541 7.79478 32.7239 8.19046C32.4938 8.58995 32.1065 9.24815 31.8707 9.65524L31.4385 10.3933L31.6237 10.6521C31.7304 10.7928 31.8426 10.9108 31.8707 10.9108C31.9044 10.9108 32.1008 10.6064 32.3198 10.2335C32.5331 9.86449 32.9821 9.09596 33.3077 8.53288L33.9083 7.50563L33.6501 7.45997C33.3245 7.40671 33.2067 7.4029 33.1674 7.44095Z" fill="#AEAFAF"/>
<path d="M5.52028 11.0438C5.44742 11.1504 5.48665 11.1922 5.68842 11.2341C5.82853 11.2607 5.85094 11.1998 5.74446 11.0438C5.666 10.9221 5.60435 10.9221 5.52028 11.0438Z" fill="#AEAFAF"/>
<path d="M31.034 11.0704C30.9443 11.2226 30.9891 11.2683 31.1853 11.2188C31.3478 11.177 31.3702 11.1351 31.2806 11.021C31.1965 10.9183 31.1236 10.9297 31.034 11.0704Z" fill="#AEAFAF"/>
<path d="M5.05344 11.6947C5.00853 11.7708 4.96924 11.8431 4.96924 11.8583C4.96924 11.8926 6.32765 12.2502 6.36132 12.2236C6.41746 12.1855 6.18731 11.7822 6.09189 11.748C5.95156 11.6985 5.31726 11.5578 5.22183 11.5578C5.17693 11.5578 5.09834 11.6186 5.05344 11.6947Z" fill="#AEAFAF"/>
<path d="M31.1971 11.6224C30.6582 11.7594 30.6414 11.767 30.5011 11.9915C30.4281 12.1094 30.3832 12.2159 30.4 12.2274C30.4281 12.2464 31.2757 12.0485 31.6349 11.9344C31.7977 11.8849 31.8258 11.805 31.7191 11.6529C31.6462 11.5425 31.5339 11.5387 31.1971 11.6224Z" fill="#AEAFAF"/>
<path d="M4.65635 12.4213C4.53848 12.6305 4.52164 12.6229 5.27943 12.7561C5.58815 12.8132 5.96424 12.8854 6.1158 12.9159C6.41892 12.9806 6.50311 12.9501 6.47505 12.7827C6.45821 12.6876 6.35717 12.6572 5.11664 12.3414L4.75178 12.2463L4.65635 12.4213Z" fill="#AEAFAF"/>
<path d="M31.1245 12.4859C30.2881 12.7066 30.2657 12.7142 30.2993 12.8093C30.3555 12.9653 30.4116 12.9767 30.7035 12.9158C30.8494 12.8854 31.1357 12.8321 31.3378 12.7941C32.1854 12.6419 32.2415 12.6228 32.2022 12.5353C32.1236 12.3679 32.0731 12.288 32.0282 12.2728C32.0058 12.2614 31.596 12.3565 31.1245 12.4859Z" fill="#AEAFAF"/>
<path d="M4.35251 13.1024C4.31883 13.1595 4.29638 13.2508 4.30761 13.304C4.32445 13.3992 4.36935 13.4106 5.21134 13.5513C5.69969 13.6312 6.10946 13.6883 6.1263 13.6769C6.14314 13.6655 6.17121 13.5856 6.18805 13.5019C6.22734 13.3193 6.25541 13.3269 5.23379 13.1519C4.85771 13.0872 4.52091 13.0225 4.48162 13.0149C4.44233 13.0035 4.38619 13.0415 4.35251 13.1024Z" fill="#AEAFAF"/>
<path d="M31.4662 13.1709C31.0003 13.2546 30.5962 13.3383 30.5793 13.3497C30.5288 13.384 30.6579 13.6884 30.7197 13.6884C30.7477 13.6884 31.0677 13.6389 31.4326 13.578C31.7974 13.5171 32.1903 13.4525 32.3138 13.4372L32.5271 13.4106L32.4935 13.2546C32.4317 12.9959 32.4149 12.9921 31.4662 13.1709Z" fill="#AEAFAF"/>
<path d="M6.90949 13.2239C6.89266 13.2467 6.80851 13.4483 6.72997 13.6766C5.91091 16.0279 6.72997 18.5618 8.94594 20.5173C9.30498 20.8331 10.2419 21.4875 10.7524 21.7767C11.1843 22.0202 12.2334 22.5148 12.3232 22.5148C12.4073 22.5148 12.3793 22.4463 12.1156 21.9897C11.9698 21.7424 11.6444 21.1832 11.3919 20.7456C11.1339 20.3043 10.657 19.4825 10.326 18.9194C9.99502 18.3525 9.5911 17.6601 9.4284 17.3785C9.26571 17.097 8.81691 16.3246 8.42982 15.6664C8.04833 15.0082 7.57148 14.1941 7.38074 13.8592C7.01608 13.2277 6.96559 13.163 6.90949 13.2239Z" fill="#AEAFAF"/>
<path d="M29.6873 13.3952C29.6088 13.517 29.5414 13.6235 29.5414 13.6311C29.5414 13.6387 29.2497 14.1485 28.8907 14.7611C28.5316 15.3736 27.9762 16.3286 27.6508 16.8841C27.3255 17.4395 26.8991 18.1738 26.6971 18.5201C26.2596 19.2696 25.4405 20.6773 24.8514 21.6855C24.6158 22.0888 24.4139 22.4388 24.397 22.4655C24.3409 22.5644 24.5373 22.5111 25.0029 22.3019C27.9033 20.9855 29.7546 18.9842 30.2764 16.5987C30.3886 16.0927 30.3773 14.8334 30.2539 14.3388C30.1361 13.8632 29.951 13.3229 29.878 13.2354C29.8388 13.186 29.7995 13.2202 29.6873 13.3952Z" fill="#AEAFAF"/>
<path d="M4.10055 13.9316C4.01635 14.2322 4.01074 14.2284 4.94815 14.3311C5.41405 14.3806 5.83505 14.411 5.88557 14.3996C5.95293 14.3844 5.98099 14.3311 5.98099 14.2246C5.98099 14.0952 5.95854 14.0686 5.8575 14.0496C5.78453 14.0381 5.40844 13.9811 5.02113 13.9164C4.6282 13.8555 4.26895 13.8023 4.22404 13.8023C4.16791 13.8023 4.12301 13.8479 4.10055 13.9316Z" fill="#AEAFAF"/>
<path d="M32.2062 13.8441C32.1164 13.8631 31.774 13.9202 31.4541 13.9697C31.1341 14.0229 30.8534 14.0762 30.8254 14.0952C30.7973 14.1143 30.7917 14.1903 30.8141 14.2702C30.8422 14.392 30.8647 14.411 30.9938 14.411C31.2071 14.411 32.6497 14.2512 32.7002 14.2208C32.7227 14.2056 32.7283 14.1066 32.7058 13.9963C32.6721 13.8175 32.6553 13.8023 32.5206 13.8061C32.442 13.8061 32.3017 13.8251 32.2062 13.8441Z" fill="#AEAFAF"/>
<path d="M0.32474 14.0303C0.223702 14.0722 0.10021 14.1673 0.0553039 14.2434C-0.214132 14.6771 0.560497 15.0652 1.09376 14.7608C1.44739 14.5592 1.37442 14.1483 0.959038 14.0151C0.712054 13.9352 0.54927 13.939 0.32474 14.0303Z" fill="#AEAFAF"/>
<path d="M35.7632 14.0419C35.3927 14.2093 35.3703 14.5707 35.7183 14.7685C36.0775 14.974 36.6501 14.8484 36.7736 14.5365C36.8185 14.4261 36.8129 14.3653 36.7287 14.2359C36.549 13.962 36.128 13.8745 35.7632 14.0419Z" fill="#AEAFAF"/>
<path d="M3.94815 14.8374C3.93692 14.9477 3.94815 15.0619 3.97622 15.0885C4.01551 15.1227 4.25127 15.1341 4.93608 15.1265L5.83982 15.1151L5.85666 14.9743C5.87911 14.8107 5.95769 14.8336 4.91924 14.7156C3.9257 14.6053 3.97622 14.6015 3.94815 14.8374Z" fill="#AEAFAF"/>
<path d="M31.7022 14.7344C31.3037 14.7839 30.9669 14.8257 30.9557 14.8257C30.9445 14.8295 30.9445 14.8942 30.9557 14.9703L30.9725 15.1149L31.9156 15.1263L32.8586 15.1339L32.8417 14.898L32.8249 14.6583L32.6284 14.6507C32.5218 14.6507 32.1064 14.6888 31.7022 14.7344Z" fill="#AEAFAF"/>
<path d="M3.94212 15.5372C3.91967 15.5524 3.90283 15.6399 3.90283 15.7312C3.90283 15.8492 3.9309 15.9024 3.99264 15.9214C4.11052 15.9519 5.76643 15.8263 5.82818 15.7845C5.85624 15.7655 5.86747 15.7046 5.85624 15.6437L5.8394 15.5334L4.9076 15.522C4.3968 15.5182 3.96458 15.5258 3.94212 15.5372Z" fill="#AEAFAF"/>
<path d="M30.9846 15.5409C30.9622 15.5523 30.9453 15.6208 30.9453 15.693C30.9453 15.7882 30.9678 15.8186 31.0464 15.8186C31.0969 15.8186 31.4449 15.8452 31.8154 15.8757C32.1858 15.9061 32.5732 15.9327 32.6742 15.9327H32.8538V15.7235V15.5142H31.9389C31.4337 15.5142 31.0014 15.5256 30.9846 15.5409Z" fill="#AEAFAF"/>
<path d="M4.82978 16.2715L3.98779 16.3324L4.00463 16.5607C4.01586 16.6862 4.04954 16.808 4.0776 16.8308C4.12251 16.8689 4.57718 16.8156 5.80087 16.6368C5.92998 16.6139 5.95243 16.5379 5.89069 16.3172C5.86823 16.2411 5.82333 16.1992 5.76158 16.203C5.71106 16.2069 5.29568 16.2373 4.82978 16.2715Z" fill="#AEAFAF"/>
<path d="M30.928 16.222C30.9055 16.2372 30.8887 16.3323 30.8887 16.4313C30.8887 16.5911 30.9055 16.6177 31.0178 16.6329C31.523 16.7052 32.0338 16.7775 32.3369 16.8231C32.6512 16.8688 32.6961 16.8688 32.7354 16.8117C32.8084 16.7204 32.8309 16.397 32.7691 16.3552C32.7354 16.3362 32.3986 16.3019 32.0113 16.2791C31.624 16.2525 31.2311 16.2258 31.1413 16.2144C31.0458 16.203 30.9504 16.2068 30.928 16.222Z" fill="#AEAFAF"/>
<path d="M5.13797 17.1161C4.08829 17.2683 4.12759 17.2493 4.21179 17.5004C4.25108 17.6297 4.30721 17.7058 4.36896 17.7134C4.46438 17.7248 6.03609 17.4281 6.10345 17.3862C6.15958 17.3482 6.02487 16.9982 5.95751 17.002C5.92383 17.0058 5.55335 17.0552 5.13797 17.1161Z" fill="#AEAFAF"/>
<path d="M30.7483 17.0819C30.7315 17.1314 30.7091 17.2189 30.7034 17.2797C30.6922 17.3939 30.6922 17.3939 31.4781 17.5575C31.9103 17.645 32.3144 17.7211 32.3818 17.7211C32.5839 17.7211 32.7242 17.2873 32.5334 17.2493C32.4379 17.2303 30.8382 16.9982 30.7989 16.9982C30.7876 16.9982 30.7652 17.0362 30.7483 17.0819Z" fill="#AEAFAF"/>
<path d="M5.3066 17.9647L4.49268 18.1245L4.49829 18.2386C4.51513 18.406 4.62178 18.5582 4.72843 18.5582C4.82947 18.5582 6.3226 18.1892 6.38434 18.1473C6.45731 18.0979 6.31137 17.7973 6.21033 17.8011C6.15981 17.8011 5.75566 17.8734 5.3066 17.9647Z" fill="#AEAFAF"/>
<path d="M30.4393 17.9305C30.4001 18.0066 30.3832 18.0903 30.4001 18.1169C30.4281 18.1664 31.9212 18.5582 32.084 18.5582C32.1851 18.5582 32.3871 18.1892 32.3142 18.1397C32.258 18.1055 30.6919 17.7973 30.5741 17.7973C30.5348 17.7973 30.473 17.8582 30.4393 17.9305Z" fill="#AEAFAF"/>
<path d="M5.75513 18.733C5.31168 18.8471 4.92437 18.9537 4.90191 18.9689C4.85139 19.0031 5.00856 19.3455 5.08154 19.376C5.1096 19.3874 5.46324 19.2847 5.87862 19.1477C6.90023 18.8091 6.82726 18.8471 6.7599 18.714C6.65325 18.5123 6.61957 18.5123 5.75513 18.733Z" fill="#AEAFAF"/>
<path d="M30.0689 18.6569C29.9959 18.7748 29.9959 18.8052 30.0577 18.8433C30.17 18.9194 31.6631 19.3911 31.7024 19.3645C31.7866 19.3074 31.955 18.9993 31.9157 18.9726C31.8708 18.9422 30.2485 18.5199 30.1812 18.5199C30.1643 18.5199 30.1138 18.5808 30.0689 18.6569Z" fill="#AEAFAF"/>
<path d="M6.17589 19.471C5.74928 19.6118 5.38442 19.7487 5.37319 19.7678C5.35074 19.8134 5.56966 20.1178 5.62018 20.1178C5.70437 20.1178 7.16943 19.4938 7.1975 19.4482C7.22557 19.3911 7.07401 19.2009 7.00104 19.2085C6.97858 19.2085 6.60811 19.3264 6.17589 19.471Z" fill="#AEAFAF"/>
<path d="M29.6372 19.3152C29.5923 19.3761 29.5699 19.4408 29.5923 19.4598C29.6428 19.5093 31.164 20.1332 31.1921 20.1142C31.2819 20.0457 31.4503 19.7604 31.411 19.7375C31.3549 19.7071 29.8 19.2049 29.7495 19.2049C29.7326 19.2049 29.6821 19.2544 29.6372 19.3152Z" fill="#AEAFAF"/>
<path d="M18.12 19.4674C17.525 19.6501 17.6372 20.2474 18.2827 20.3273C18.8721 20.4034 19.2987 19.905 18.9114 19.5892C18.7823 19.4865 18.715 19.4636 18.4343 19.4142C18.3894 19.4028 18.2491 19.4294 18.12 19.4674Z" fill="#AEAFAF"/>
<path d="M6.73662 20.1216C6.33808 20.289 5.98445 20.4412 5.95638 20.4602C5.91147 20.4907 6.16968 20.8407 6.24266 20.8407C6.28756 20.8407 7.59545 20.1901 7.69088 20.1178C7.75823 20.0684 7.75262 20.0455 7.65158 19.9352C7.58984 19.8705 7.52248 19.8134 7.50564 19.8173C7.48318 19.8173 7.14078 19.9542 6.73662 20.1216Z" fill="#AEAFAF"/>
<path d="M29.155 19.9241C29.0876 19.985 29.0371 20.0496 29.0371 20.0687C29.0427 20.0991 30.3899 20.7915 30.5134 20.8258C30.5976 20.8448 30.9175 20.4986 30.8502 20.4605C30.7941 20.4225 29.3178 19.8138 29.2897 19.8138C29.2785 19.8138 29.2167 19.8632 29.155 19.9241Z" fill="#AEAFAF"/>
<path d="M7.34971 20.7837C6.95117 20.9854 6.61999 21.1642 6.60876 21.1832C6.5807 21.2403 6.88381 21.4914 6.96801 21.48C7.08027 21.4609 8.33764 20.6886 8.33764 20.6353C8.33764 20.6087 8.28151 20.5516 8.20854 20.506L8.07943 20.4223L7.34971 20.7837Z" fill="#AEAFAF"/>
<path d="M28.5662 20.5136C28.5157 20.5669 28.4764 20.6316 28.482 20.6582C28.482 20.7153 29.7281 21.461 29.8404 21.48C29.9134 21.4914 30.2614 21.1985 30.2109 21.168C29.9583 21.0311 28.7907 20.4528 28.7346 20.4376C28.6953 20.4261 28.6223 20.4604 28.5662 20.5136Z" fill="#AEAFAF"/>
<path d="M8.07822 21.3585C7.74142 21.5601 7.43269 21.7465 7.38779 21.777C7.32043 21.8188 7.33166 21.8455 7.46076 21.9596C7.54496 22.0357 7.64039 22.0966 7.67968 22.0966C7.76388 22.0966 9.01002 21.2557 9.01002 21.1987C9.01002 21.1568 8.77426 20.9932 8.71813 20.9932C8.70129 20.9932 8.4094 21.1568 8.07822 21.3585Z" fill="#AEAFAF"/>
<path d="M27.8754 21.1036L27.752 21.2101L28.4087 21.6514C28.7736 21.8949 29.0935 22.0966 29.1216 22.0966C29.1833 22.0966 29.5089 21.834 29.4752 21.8112C29.0598 21.5487 28.1 20.9932 28.0551 20.997C28.027 20.997 27.9428 21.0465 27.8754 21.1036Z" fill="#AEAFAF"/>
<path d="M8.83464 21.8986C8.02634 22.4655 8.07685 22.4008 8.32945 22.5682L8.54275 22.7128L9.14337 22.2372C9.46894 21.9747 9.73838 21.7464 9.73838 21.7274C9.73838 21.6817 9.49701 21.5257 9.42403 21.5257C9.39036 21.5257 9.12653 21.6931 8.83464 21.8986Z" fill="#AEAFAF"/>
<path d="M27.1743 21.6056C27.1181 21.6437 27.0732 21.7007 27.0732 21.7236C27.0732 21.7654 27.4942 22.1192 28.1229 22.6062L28.2633 22.7128L28.4541 22.5872C28.5608 22.5187 28.645 22.4426 28.645 22.4198C28.645 22.3665 27.3988 21.5257 27.3258 21.5295C27.2922 21.5295 27.2248 21.5638 27.1743 21.6056Z" fill="#AEAFAF"/>
<path d="M9.60935 22.458C9.30623 22.6977 9.04802 22.9183 9.03118 22.9488C9.00873 22.9944 9.26132 23.158 9.49708 23.2531C9.54199 23.2683 9.7609 23.0895 10.1089 22.7585L10.659 22.2373L10.4794 22.1308C10.3784 22.0699 10.2661 22.0204 10.2268 22.0204C10.1875 22.0204 9.90685 22.2183 9.60935 22.458Z" fill="#AEAFAF"/>
<path d="M26.3218 22.1306C26.2207 22.2029 26.1814 22.26 26.2095 22.2942C26.3105 22.4122 27.1974 23.2378 27.2367 23.2568C27.2929 23.2796 27.8149 23.0095 27.7924 22.9677C27.7475 22.8725 26.6417 22.0203 26.5631 22.0203C26.5182 22.0203 26.406 22.0698 26.3218 22.1306Z" fill="#AEAFAF"/>
<path d="M17.0874 22.0927C17.0874 22.1574 18.3335 23.4281 18.4009 23.4281C18.457 23.4281 19.6358 22.2373 19.7088 22.1079C19.7312 22.0698 19.4674 22.0584 18.4121 22.0584C17.6319 22.0584 17.0874 22.0737 17.0874 22.0927Z" fill="#AEAFAF"/>
<path d="M10.5906 22.9676C10.3044 23.2415 10.0742 23.485 10.0742 23.5116C10.0742 23.5687 10.5738 23.816 10.6355 23.7894C10.6861 23.7704 11.5112 22.8306 11.5617 22.7393C11.5842 22.6975 11.5281 22.648 11.3765 22.5795C11.2586 22.5224 11.1463 22.4768 11.1295 22.4768C11.1183 22.4768 10.8713 22.6975 10.5906 22.9676Z" fill="#AEAFAF"/>
<path d="M25.4303 22.5758C25.3181 22.6253 25.2227 22.6862 25.2227 22.709C25.2227 22.7737 26.0815 23.74 26.1545 23.7591C26.2443 23.7819 26.7382 23.5803 26.7382 23.5194C26.7382 23.4737 25.8289 22.5872 25.711 22.5226C25.6549 22.4883 25.5875 22.4997 25.4303 22.5758Z" fill="#AEAFAF"/>
<path d="M24.4526 22.979L24.2729 23.0513L24.6883 23.622C24.9185 23.9339 25.1374 24.1888 25.1711 24.1888C25.2665 24.1888 25.6145 24.0367 25.6145 23.9948C25.6145 23.9453 24.7781 22.9828 24.6939 22.9409C24.6547 22.9181 24.5648 22.9333 24.4526 22.979Z" fill="#AEAFAF"/>
<path d="M11.6183 23.4507C11.3713 23.7361 11.1636 23.9796 11.1524 23.9948C11.1355 24.0252 11.5453 24.1888 11.6407 24.1888C11.6744 24.1888 11.8821 23.9377 12.101 23.6296L12.4995 23.0703L12.376 23.0018C12.3087 22.9638 12.2077 22.9333 12.1571 22.9333C12.101 22.9333 11.9045 23.1235 11.6183 23.4507Z" fill="#AEAFAF"/>
<path d="M12.5436 23.8886C12.3585 24.1435 12.207 24.3604 12.207 24.3756C12.207 24.3908 12.2912 24.4327 12.3977 24.4669C12.6333 24.543 12.6333 24.543 12.9362 24.1017L13.1605 23.7745L13.0484 23.5994C12.9867 23.5043 12.925 23.4282 12.9081 23.4282C12.8913 23.4282 12.7287 23.6375 12.5436 23.8886Z" fill="#AEAFAF"/>
<path d="M13.6084 23.4584C13.6084 23.5002 14.2423 24.6074 14.3882 24.8204C14.4836 24.9574 14.5284 24.9802 14.8202 25.0335C16.952 25.4292 20.06 25.4216 22.074 25.0183L22.3208 24.9688L22.764 24.2117C23.0052 23.797 23.1904 23.447 23.1735 23.4356C23.1567 23.4241 22.8369 23.485 22.4554 23.5725C19.8019 24.1813 17.0025 24.1813 14.3826 23.5801C13.6982 23.4203 13.6084 23.4089 13.6084 23.4584Z" fill="#AEAFAF"/>
<path d="M23.8405 23.4737C23.8068 23.5003 23.7507 23.5802 23.7059 23.6487C23.6386 23.7628 23.6498 23.7933 23.8797 24.1319C24.1377 24.52 24.2331 24.5694 24.4799 24.4248C24.5977 24.3602 24.5977 24.3602 24.2443 23.8922C23.9807 23.5346 23.8797 23.4318 23.8405 23.4737Z" fill="#AEAFAF"/>
<path d="M13.3055 24.4892C13.2495 24.5729 13.2214 24.6566 13.2382 24.6756C13.2831 24.7251 13.6586 24.8126 13.7034 24.786C13.7427 24.7555 13.5241 24.3674 13.4568 24.3522C13.4288 24.3446 13.3559 24.4055 13.3055 24.4892Z" fill="#AEAFAF"/>
<path d="M23.2917 24.3716C23.2244 24.4477 23.0507 24.7977 23.0787 24.7977C23.1852 24.7977 23.5383 24.714 23.5663 24.6836C23.6055 24.6417 23.4318 24.3412 23.3702 24.3412C23.3421 24.3412 23.3085 24.3526 23.2917 24.3716Z" fill="#AEAFAF"/>
<path d="M14.7874 25.4825C14.7874 25.5282 15.7411 27.168 15.7916 27.2022C15.8701 27.2631 17.3904 27.3468 18.4058 27.3468C18.9949 27.3468 19.8027 27.3202 20.2011 27.2897C20.605 27.2593 20.9472 27.2327 20.9696 27.2327C21.0145 27.2327 22.0355 25.4787 22.0019 25.4559C21.9907 25.4445 21.727 25.4711 21.424 25.5168C19.5896 25.7831 17.267 25.7831 15.354 25.5168C14.7425 25.4331 14.7874 25.4369 14.7874 25.4825Z" fill="#AEAFAF"/>
<path d="M16.0781 27.6854C16.0781 27.7272 16.3642 28.2218 17.7836 30.653C18.0977 31.1818 18.3726 31.6194 18.3951 31.6232C18.4231 31.6232 18.5409 31.4634 18.6531 31.2655C18.7709 31.0677 19.0739 30.5427 19.332 30.1051C19.5844 29.6638 20.0052 28.9409 20.2688 28.4958C20.5325 28.0468 20.7345 27.674 20.7176 27.6664C20.7064 27.6549 20.4091 27.6664 20.0669 27.693C19.4442 27.7348 16.7457 27.7196 16.2913 27.6664C16.1454 27.6511 16.0781 27.6587 16.0781 27.6854Z" fill="#AEAFAF"/>
<path d="M15.7407 32.7759C15.7463 33.1791 16.0268 33.5938 16.5261 33.9325C17.0591 34.2939 17.6481 34.4613 18.4055 34.4613C19.6229 34.4613 20.6383 33.9325 20.9637 33.1373C21.0759 32.871 21.1039 32.6351 21.0254 32.6351C20.9973 32.6351 20.8964 32.7036 20.801 32.7835C20.5822 32.9661 19.9651 33.2514 19.5556 33.3542C18.5009 33.6205 17.3059 33.4987 16.4251 33.0422C16.24 32.9433 16.0268 32.8139 15.9483 32.7492C15.8698 32.6883 15.7912 32.6351 15.7744 32.6351C15.7576 32.6351 15.7407 32.6998 15.7407 32.7759Z" fill="#AEAFAF"/>
</svg>
